<?xml version="1.0" standalone="no"?>
<!DOCTYPE svg PUBLIC "-//W3C//DTD SVG 20010904//EN"
 "http://www.w3.org/TR/2001/REC-SVG-20010904/DTD/svg10.dtd">
<svg version="1.0" xmlns="http://www.w3.org/2000/svg"
 width="1215.000000pt" height="1280.000000pt" viewBox="0 0 1215.000000 1280.000000"
 preserveAspectRatio="xMidYMid meet">
<metadata>
Created by potrace 1.15, written by Peter Selinger 2001-2017
</metadata>
<g transform="translate(0.000000,1280.000000) scale(0.100000,-0.100000)"
fill="#000000" stroke="none">
<path d="M3504 12786 c-8 -9 -10 -48 -7 -123 7 -137 -6 -228 -62 -448 -85
-327 -110 -549 -110 -950 1 -283 4 -337 35 -620 40 -367 42 -497 12 -758 -28
-235 -46 -743 -38 -1014 7 -231 20 -352 76 -718 55 -366 62 -441 64 -695 1
-205 -1 -231 -21 -295 -30 -97 -31 -102 -53 -455 -23 -342 -37 -471 -72 -625
l-23 -100 -7 50 c-13 101 -8 415 12 645 33 395 27 584 -30 930 -28 174 -55
392 -85 690 -32 321 -46 436 -95 790 -59 430 -68 498 -90 710 -25 235 -85 685
-105 793 -8 42 -33 121 -56 175 -23 53 -70 196 -104 317 -71 248 -109 353
-160 440 l-36 60 5 -40 c2 -22 10 -126 17 -232 15 -216 5 -494 -32 -938 -25
-297 -29 -705 -10 -905 45 -476 115 -826 220 -1098 66 -170 78 -215 96 -362 9
-69 47 -300 85 -515 170 -969 219 -1405 222 -2005 1 -214 -1 -267 -16 -330
-33 -139 -29 -168 -76 435 -40 509 -56 648 -101 850 -42 191 -158 558 -224
710 -9 22 -32 103 -50 180 -159 673 -425 1278 -872 1982 -54 84 -96 139 -116
152 -18 11 -48 36 -66 55 -36 37 -68 46 -77 22 -3 -7 4 -49 14 -92 24 -94 31
-136 77 -454 42 -289 53 -336 105 -455 23 -54 49 -139 64 -215 28 -135 28
-134 123 -385 36 -93 98 -264 138 -380 158 -457 236 -639 392 -910 164 -286
215 -415 273 -695 17 -85 58 -266 91 -401 94 -394 121 -594 105 -791 l-8 -86
-38 37 -39 38 -11 169 c-48 743 -185 1192 -473 1551 -79 99 -192 183 -464 347
-95 57 -117 75 -140 114 -90 156 -213 272 -478 449 -235 157 -353 213 -481
232 -89 13 -123 28 -256 107 -156 94 -298 154 -298 125 0 -22 70 -108 128
-159 142 -122 188 -172 282 -297 150 -201 256 -296 700 -630 241 -182 402
-328 484 -440 29 -38 96 -137 150 -219 66 -100 130 -182 195 -250 101 -105
168 -202 222 -321 17 -39 100 -239 185 -445 84 -206 166 -408 183 -448 17 -40
33 -96 36 -125 l6 -52 -29 70 c-17 39 -65 131 -108 205 -42 74 -106 199 -140
278 -94 213 -132 280 -204 356 -151 160 -579 389 -862 461 -136 34 -319 53
-613 65 -421 16 -594 31 -725 65 -30 8 -56 12 -58 10 -3 -2 3 -16 13 -31 10
-16 52 -42 113 -71 53 -24 133 -67 178 -93 106 -65 288 -136 747 -291 863
-293 1010 -368 1271 -641 119 -124 207 -244 243 -333 25 -62 36 -105 26 -105
-17 0 -71 40 -141 104 -106 96 -220 141 -427 165 -199 24 -617 2 -690 -36 -61
-32 -139 -52 -248 -63 -60 -6 -113 -18 -137 -30 -108 -55 -354 -100 -543 -100
-158 0 -380 39 -455 79 -32 17 -35 13 -12 -18 126 -177 494 -310 910 -328 95
-4 175 -2 229 6 79 12 291 68 556 146 129 39 377 85 454 85 26 0 72 -7 101
-16 34 -10 71 -14 97 -10 43 6 44 6 116 -70 139 -146 167 -217 167 -434 1 -74
5 -155 9 -180 8 -40 6 -51 -31 -123 -53 -106 -117 -263 -172 -426 -34 -100
-55 -143 -81 -172 -41 -46 -58 -78 -119 -228 -58 -140 -86 -183 -226 -341 -61
-69 -139 -165 -173 -214 -135 -193 -184 -252 -280 -332 -110 -94 -141 -127
-162 -178 -21 -51 -19 -66 17 -103 l31 -32 -41 -44 c-39 -43 -72 -96 -72 -116
0 -11 41 -18 195 -31 67 -5 134 -12 150 -15 27 -5 49 9 200 126 94 72 400 300
680 507 858 632 979 725 1220 947 88 81 190 167 226 190 36 24 69 51 73 60 20
54 -10 59 -86 14 -82 -49 -127 -80 -378 -269 -259 -194 -484 -351 -780 -545
-408 -268 -1070 -663 -1070 -639 0 18 101 147 159 204 56 54 72 78 100 146 24
61 55 109 122 194 112 140 129 170 169 295 38 116 58 159 132 276 54 86 93
178 213 504 111 301 168 405 367 670 94 127 196 253 225 282 38 38 86 68 185
117 219 108 348 136 638 136 176 1 196 4 423 65 155 41 299 54 593 55 483 1
1023 110 1356 275 156 78 318 190 318 221 0 24 39 94 91 165 27 36 58 86 69
110 22 50 26 105 8 112 -24 8 -48 -13 -100 -90 -92 -137 -152 -191 -259 -233
-70 -28 -177 -45 -524 -82 -290 -31 -315 -32 -755 -33 -371 -1 -473 -5 -555
-18 -308 -51 -502 -109 -717 -217 -91 -46 -146 -81 -436 -282 -87 -61 -244
-148 -266 -148 -5 0 -6 21 -3 46 3 32 13 55 33 76 43 45 206 166 314 233 97
59 592 318 710 371 167 74 761 413 971 555 31 21 109 63 173 93 124 58 195
104 316 206 41 35 127 102 190 150 130 99 171 140 255 260 33 46 110 137 171
201 61 65 172 188 245 276 74 87 171 200 217 251 45 51 82 100 82 109 0 9 24
73 54 142 71 167 76 183 82 271 l5 75 -137 -140 c-75 -76 -166 -174 -201 -217
-36 -43 -70 -78 -77 -78 -22 0 -175 -101 -332 -221 -84 -63 -226 -159 -315
-213 -251 -153 -369 -231 -549 -366 -240 -179 -291 -223 -503 -428 -106 -102
-271 -251 -368 -331 -97 -80 -236 -196 -310 -257 -74 -61 -201 -173 -284 -249
-250 -229 -735 -629 -788 -650 -26 -10 -50 -16 -53 -13 -8 8 69 105 112 141
21 18 89 68 150 110 132 92 170 130 221 219 46 82 300 375 437 505 56 53 150
128 213 170 62 41 113 78 113 83 0 6 51 60 113 122 85 85 122 131 152 187 24
45 72 110 122 163 45 49 101 121 124 161 23 39 59 102 80 138 21 36 67 101
103 144 36 44 89 117 117 162 28 46 75 112 104 146 57 67 78 105 119 212 17
47 55 109 114 187 50 68 113 169 150 241 52 102 79 142 161 234 152 171 217
296 310 603 16 52 42 129 57 170 27 74 28 79 35 370 4 214 11 314 22 365 28
122 26 173 -7 212 l-24 28 -11 -42 c-6 -23 -16 -100 -21 -171 -7 -83 -19 -162
-36 -219 -32 -111 -183 -424 -268 -554 -36 -54 -84 -133 -107 -176 -64 -117
-95 -159 -142 -192 -57 -39 -117 -130 -255 -386 -126 -233 -158 -279 -357
-510 -76 -88 -155 -183 -177 -212 -63 -86 -173 -274 -304 -521 -211 -397 -369
-628 -704 -1030 -116 -140 -143 -184 -190 -312 -46 -126 -67 -159 -159 -255
-48 -49 -113 -121 -146 -159 -48 -56 -102 -96 -129 -96 -3 0 22 37 54 82 33
46 110 182 172 303 167 331 392 695 604 980 162 217 200 282 249 435 15 47 63
160 106 251 80 170 97 219 124 369 11 59 26 100 48 135 70 111 95 174 132 331
20 88 54 227 76 309 21 83 55 249 74 370 47 292 57 332 114 455 81 175 119
319 178 685 49 306 51 352 20 505 -14 69 -31 184 -37 255 -6 76 -23 178 -40
247 -20 78 -30 141 -30 192 0 54 -6 90 -22 128 -16 39 -23 83 -27 168 -5 99
-9 120 -30 148 -13 18 -26 30 -30 27 -3 -4 -9 -172 -12 -373 l-6 -367 -31
-115 c-17 -63 -61 -203 -97 -309 -69 -207 -100 -325 -190 -729 -31 -140 -79
-335 -107 -435 -118 -428 -138 -504 -163 -644 -14 -82 -41 -227 -60 -323 -19
-96 -43 -231 -54 -300 -25 -151 -44 -218 -106 -375 -26 -66 -69 -183 -96 -261
-26 -77 -87 -246 -134 -375 -48 -129 -116 -317 -151 -419 -73 -209 -110 -293
-177 -397 -71 -110 -90 -154 -157 -358 -60 -183 -116 -323 -124 -314 -12 12
20 178 69 360 79 290 275 854 393 1125 33 77 97 255 141 395 181 574 205 714
241 1414 15 287 27 393 70 635 38 216 50 324 71 650 12 190 28 293 83 525 71
295 77 378 51 665 -18 191 -30 264 -91 530 -70 310 -73 322 -89 347 -17 25
-63 58 -71 51 -3 -3 0 -34 5 -70 22 -137 32 -402 21 -564 -19 -290 -54 -450
-149 -677 -132 -316 -172 -620 -206 -1587 -26 -738 -37 -856 -126 -1420 -110
-696 -145 -861 -328 -1545 -38 -143 -79 -306 -92 -362 -13 -56 -25 -101 -27
-99 -6 7 102 832 144 1096 46 289 109 584 168 783 21 72 25 109 30 312 5 172
12 262 28 355 30 166 29 408 -2 785 -17 202 -24 360 -24 565 -1 313 1 333 65
595 78 318 74 626 -16 1190 -13 83 -33 220 -44 305 -12 85 -41 245 -66 355
-54 239 -65 364 -41 447 23 79 20 117 -15 248 -18 63 -35 144 -38 180 -6 66
-22 86 -47 56z"/>
<path d="M6325 4709 c-164 -19 -385 -111 -690 -286 -77 -44 -192 -108 -255
-143 -358 -195 -666 -404 -945 -638 -104 -87 -278 -252 -272 -258 9 -9 94 48
166 111 159 137 555 356 876 483 160 64 255 98 680 242 149 51 338 117 420
147 256 95 303 102 543 79 90 -9 181 -13 202 -10 l39 6 -15 30 c-93 180 -403
278 -749 237z"/>
<path d="M4974 4632 c-77 -27 -144 -75 -228 -162 -102 -107 -121 -147 -171
-369 -14 -62 -38 -137 -52 -165 -18 -35 -84 -110 -208 -236 -175 -177 -234
-251 -269 -334 -22 -53 -21 -55 20 -15 20 18 49 61 66 93 48 96 66 114 198
201 145 96 247 196 332 325 74 113 307 342 394 387 77 41 161 63 240 63 89 0
163 17 208 47 l40 26 -30 23 c-133 107 -400 164 -540 116z"/>
<path d="M7725 4575 c-85 -16 -196 -54 -375 -129 -212 -90 -272 -104 -535
-126 -283 -24 -351 -37 -546 -100 -85 -27 -253 -77 -374 -110 -360 -100 -576
-167 -713 -221 -206 -81 -748 -376 -819 -446 -39 -39 -55 -73 -35 -73 17 0
195 76 474 201 540 242 558 248 1228 389 500 105 531 110 820 120 222 8 256
11 365 38 66 17 180 40 253 51 131 21 161 30 193 57 34 30 253 90 364 101 80
7 168 -15 324 -81 69 -29 138 -56 154 -60 26 -6 27 -5 21 21 -23 91 -187 228
-386 323 -124 59 -259 74 -413 45z"/>
<path d="M9145 4224 c-61 -7 -191 -26 -290 -43 -187 -32 -300 -43 -593 -61
-94 -5 -234 -19 -310 -30 -167 -23 -326 -37 -537 -45 -301 -12 -561 -46 -955
-126 -107 -22 -359 -73 -560 -114 -201 -40 -414 -86 -475 -100 -126 -31 -553
-163 -635 -197 -77 -32 -180 -89 -180 -99 0 -21 113 -8 217 25 126 39 219 55
191 33 -10 -8 -18 -17 -18 -21 0 -10 278 -7 354 4 38 6 89 19 114 30 41 19 46
19 57 3 10 -14 24 -15 96 -10 46 4 136 18 199 31 64 14 183 30 265 36 83 6
258 22 390 35 383 38 451 44 620 51 189 7 333 -5 436 -37 108 -34 204 -31 509
19 414 67 807 102 1143 102 352 0 557 -28 1027 -141 486 -115 631 -139 861
-139 208 0 286 -14 654 -116 160 -44 346 -84 388 -84 48 2 -193 108 -413 183
-232 79 -494 146 -845 216 -138 27 -272 53 -300 57 -27 4 -72 18 -98 31 -137
68 -347 123 -552 144 -157 16 -415 6 -560 -21 -60 -11 -144 -25 -185 -30 -119
-16 -544 -30 -930 -30 -552 -1 -1247 -18 -1420 -35 -196 -20 -355 -44 -695
-105 -497 -90 -719 -122 -920 -134 l-90 -6 110 29 c61 16 225 54 366 85 141
31 306 74 365 95 142 50 231 65 629 101 514 47 763 59 1430 70 1010 16 1031
16 1300 46 183 20 303 27 450 28 236 0 273 -7 490 -104 143 -63 230 -90 289
-90 31 0 36 3 36 24 0 33 -39 77 -103 117 -28 18 -88 61 -132 94 -103 79 -145
101 -252 126 -48 12 -134 39 -192 60 -57 22 -136 44 -175 49 -102 13 -442 10
-571 -6z"/>
<path d="M8760 3612 c-30 -1 -147 -13 -260 -27 -492 -58 -542 -61 -1225 -80
-618 -17 -738 -23 -1150 -65 -560 -57 -874 -73 -1010 -50 -82 14 -215 14 -251
-1 -28 -11 -24 -13 66 -30 142 -27 394 -57 580 -70 115 -7 448 -9 1100 -4 895
7 949 6 1260 -15 328 -22 593 -28 840 -20 118 3 152 1 266 -23 72 -14 171 -28
220 -30 72 -3 104 -10 169 -37 78 -32 85 -34 275 -41 107 -4 256 -17 330 -28
211 -33 318 -37 360 -16 29 15 50 16 164 10 208 -12 200 -13 681 72 153 27
398 23 596 -10 91 -15 192 -27 225 -27 l59 1 -130 55 c-298 127 -459 168 -650
164 -247 -5 -297 -2 -420 25 -66 14 -160 35 -210 45 -100 22 -844 131 -1055
154 -269 30 -693 55 -830 48z"/>
<path d="M4610 3358 c0 -8 17 -19 38 -25 20 -6 86 -29 145 -52 211 -81 486
-138 782 -161 231 -18 493 -40 605 -50 58 -5 238 -10 400 -10 257 0 307 -3
390 -21 52 -11 183 -29 290 -39 583 -58 832 -126 1305 -355 404 -195 460 -214
1145 -385 201 -50 469 -122 595 -160 441 -132 645 -184 661 -167 12 11 -18 48
-54 66 -20 10 -73 31 -117 46 -44 15 -163 69 -265 121 -180 90 -372 171 -1153
484 -547 218 -682 267 -958 344 -384 107 -640 137 -1399 166 -844 32 -1143 40
-1395 38 -285 -2 -395 7 -482 38 -23 8 -47 22 -53 29 -19 23 -101 43 -283 71
-92 13 -174 27 -182 30 -9 4 -15 0 -15 -8z"/>
<path d="M4382 3318 c3 -7 20 -16 39 -19 19 -3 61 -19 94 -36 262 -133 634
-235 1240 -338 460 -79 630 -114 980 -201 470 -118 718 -200 948 -315 130 -65
251 -149 502 -344 110 -86 265 -197 344 -248 78 -51 233 -152 342 -225 204
-136 532 -342 544 -342 3 0 -6 23 -21 50 -39 71 -119 156 -256 272 -81 68
-186 175 -327 331 -224 249 -313 334 -486 462 -308 230 -545 343 -925 444
-326 86 -964 182 -1665 251 -474 46 -521 55 -1168 230 -158 43 -191 48 -185
28z"/>
<path d="M4160 3251 c0 -6 17 -25 37 -43 20 -18 109 -101 197 -184 89 -83 206
-190 261 -238 116 -102 186 -174 404 -416 87 -96 221 -244 299 -328 78 -85
194 -222 259 -305 82 -107 200 -236 393 -433 151 -154 291 -305 311 -335 20
-30 61 -92 91 -139 30 -47 112 -150 182 -230 122 -139 252 -320 330 -462 38
-69 117 -151 124 -130 8 24 -34 131 -121 307 -60 120 -113 250 -162 390 -93
267 -176 496 -204 558 -11 27 -47 77 -80 110 -32 34 -81 98 -108 143 -61 99
-464 585 -558 672 -75 70 -216 184 -315 254 -87 61 -705 446 -855 533 -66 38
-163 104 -216 147 -54 43 -119 89 -146 102 -57 29 -123 43 -123 27z"/>
<path d="M4390 3224 c0 -29 73 -88 145 -118 39 -16 147 -65 240 -109 201 -93
309 -137 545 -222 221 -79 249 -91 390 -157 250 -119 515 -285 885 -556 282
-207 523 -371 915 -622 542 -348 788 -519 909 -633 100 -94 181 -127 181 -73
0 32 -45 88 -237 291 -166 176 -221 227 -385 359 -62 49 -138 125 -209 208
-126 146 -173 188 -344 305 -66 45 -183 137 -260 204 -170 148 -265 221 -398
306 -215 137 -606 311 -936 417 -181 58 -252 76 -493 126 -106 21 -256 57
-333 79 -146 41 -567 183 -597 201 -14 8 -18 7 -18 -6z"/>
</g>
</svg>
