<?xml version="1.0" standalone="no"?>
<!DOCTYPE svg PUBLIC "-//W3C//DTD SVG 20010904//EN"
 "http://www.w3.org/TR/2001/REC-SVG-20010904/DTD/svg10.dtd">
<svg version="1.0" xmlns="http://www.w3.org/2000/svg"
 width="881.000000pt" height="1280.000000pt" viewBox="0 0 881.000000 1280.000000"
 preserveAspectRatio="xMidYMid meet">
<metadata>
Created by potrace 1.15, written by Peter Selinger 2001-2017
</metadata>
<g transform="translate(0.000000,1280.000000) scale(0.100000,-0.100000)"
fill="#000000" stroke="none">
<path d="M3463 12771 c-15 -19 -23 -43 -23 -69 0 -32 -4 -41 -21 -45 -14 -4
-19 -11 -15 -24 3 -10 8 -31 12 -47 7 -28 7 -28 -33 -22 -30 6 -43 3 -53 -9
-11 -14 -9 -24 14 -67 28 -51 28 -78 2 -78 -9 0 -20 -9 -26 -20 -8 -16 -5 -31
14 -72 32 -67 22 -81 -38 -49 -80 44 -90 -8 -22 -114 61 -94 81 -133 73 -141
-3 -4 -43 14 -89 40 -45 26 -91 46 -103 44 -17 -3 -20 -9 -18 -50 3 -48 33
-112 58 -122 8 -3 15 -12 15 -21 0 -8 17 -32 38 -54 20 -21 45 -53 55 -70 16
-28 16 -31 2 -31 -9 0 -34 9 -56 20 -22 12 -44 18 -49 15 -5 -3 -27 4 -49 16
-44 23 -90 20 -112 -7 -10 -12 -8 -20 10 -42 12 -15 26 -39 32 -54 6 -16 14
-28 18 -28 4 0 25 -19 47 -42 21 -22 55 -57 75 -77 42 -41 74 -89 66 -97 -3
-3 -19 2 -37 11 -17 9 -40 13 -51 10 -14 -5 -33 2 -59 20 -29 20 -48 26 -71
23 -18 -3 -50 2 -71 10 -57 22 -88 6 -88 -47 0 -32 6 -43 35 -65 33 -26 47
-56 25 -56 -24 0 -7 -23 38 -50 77 -47 92 -60 92 -78 0 -10 29 -36 67 -62 36
-24 79 -62 95 -85 l30 -40 -30 -3 c-19 -2 -56 10 -101 32 -39 20 -85 36 -102
36 -21 0 -43 10 -66 30 -37 33 -50 36 -86 19 -20 -9 -32 -7 -67 11 -36 18 -51
20 -106 15 -48 -6 -65 -12 -69 -25 -9 -27 4 -47 42 -70 33 -19 34 -22 20 -38
-19 -21 -14 -29 36 -67 34 -25 37 -30 23 -41 -9 -6 -16 -16 -16 -21 0 -6 37
-27 83 -48 45 -21 145 -79 222 -130 108 -71 150 -105 182 -148 52 -68 64 -107
35 -107 -32 0 -90 28 -102 49 -5 11 -10 29 -10 39 0 41 -121 118 -170 107 -25
-6 -32 0 -75 61 l-48 66 -43 -5 c-38 -4 -50 0 -82 25 -33 27 -42 29 -87 24
-40 -5 -67 0 -135 23 -54 19 -89 26 -96 20 -18 -14 -5 -54 27 -85 16 -15 29
-37 29 -49 0 -11 9 -28 20 -38 24 -20 26 -35 6 -43 -40 -15 -25 -61 31 -94
l37 -22 -24 -19 c-24 -19 -25 -20 -6 -34 11 -8 59 -35 108 -60 58 -31 88 -52
88 -63 0 -10 21 -28 56 -46 122 -64 256 -148 296 -187 24 -23 53 -48 64 -56
30 -19 62 -110 78 -218 13 -93 12 -115 -8 -115 -12 1 -80 207 -91 275 -10 67
-15 75 -57 96 -36 19 -41 19 -63 5 -35 -23 -52 -20 -58 12 -4 22 -17 33 -57
52 -46 21 -54 22 -86 11 -34 -12 -37 -12 -62 17 -15 16 -50 46 -78 66 -51 36
-87 45 -99 26 -11 -18 -46 -11 -78 16 -27 23 -36 25 -82 19 -44 -5 -54 -3 -70
15 -23 25 -71 27 -84 2 -9 -17 -17 -17 -108 -7 -54 6 -106 9 -115 7 -29 -6
-21 -40 12 -57 16 -9 30 -22 30 -30 0 -7 13 -23 30 -35 35 -25 39 -40 10 -40
-11 0 -23 -7 -27 -17 -7 -17 11 -35 66 -65 28 -16 30 -20 19 -38 -19 -29 0
-52 55 -69 37 -11 46 -18 42 -31 -4 -13 12 -28 67 -60 119 -70 132 -90 58 -90
-30 0 -43 -6 -60 -27 l-22 -28 -21 27 c-12 15 -32 41 -45 58 -26 33 -71 41
-92 15 -18 -22 -48 -18 -82 10 -32 27 -54 31 -92 14 -19 -9 -29 -8 -47 5 -17
12 -46 16 -110 16 -90 0 -117 -11 -99 -40 7 -11 3 -20 -13 -33 l-22 -17 28
-21 c31 -24 35 -39 8 -39 -10 0 -25 -7 -32 -16 -11 -14 -10 -18 6 -30 10 -8
22 -14 27 -14 17 0 7 -26 -14 -35 -43 -19 -28 -47 37 -73 33 -13 62 -26 64
-28 10 -10 -25 -34 -49 -34 -15 0 -38 -8 -51 -19 -40 -32 -22 -43 161 -106 73
-24 90 -49 40 -60 -32 -7 -53 -34 -42 -52 4 -5 36 -13 70 -17 35 -4 102 -18
148 -32 46 -13 99 -24 117 -24 70 0 77 -43 9 -55 -22 -3 -48 -15 -58 -26 -23
-25 -42 -24 -65 4 -25 33 -131 79 -172 75 -24 -2 -33 -8 -35 -25 -5 -34 -33
-28 -88 17 -55 45 -93 51 -122 19 -21 -22 -35 -24 -99 -13 -33 5 -49 2 -76
-15 -28 -17 -50 -21 -116 -21 -91 0 -100 -5 -149 -86 l-24 -38 23 -16 c14 -12
18 -19 10 -24 -6 -4 -11 -12 -11 -17 0 -11 6 -13 68 -29 61 -16 57 -29 -10
-44 -16 -4 -28 -13 -28 -21 0 -25 42 -42 138 -56 50 -7 92 -16 92 -19 0 -3
-30 -16 -67 -28 -81 -26 -124 -55 -107 -72 7 -7 47 -14 90 -17 44 -2 134 -8
201 -12 68 -4 126 -10 129 -14 5 -5 -22 -14 -99 -31 -15 -4 -31 -14 -34 -22
-12 -31 23 -47 114 -55 48 -4 122 -15 163 -23 41 -9 102 -16 135 -17 110 -2
131 -19 43 -34 -49 -8 -49 -31 0 -44 20 -6 125 -24 232 -41 313 -50 493 -94
625 -152 139 -62 160 -86 188 -217 22 -100 43 -609 27 -625 -17 -17 -74 50
-93 106 -21 69 -52 279 -49 341 4 84 -101 277 -142 261 -10 -4 -38 18 -83 65
-66 69 -69 70 -104 62 -20 -5 -46 -18 -58 -30 -11 -11 -28 -21 -37 -21 -17 0
-16 -10 2 -82 5 -24 3 -28 -16 -28 -21 0 -22 -3 -17 -57 3 -32 10 -77 15 -101
12 -56 -2 -64 -38 -21 -26 32 -40 81 -67 234 -8 47 -26 68 -108 124 -90 61
-118 64 -123 13 -3 -29 -7 -33 -24 -29 -16 4 -23 -1 -31 -24 -6 -16 -17 -29
-25 -29 -16 0 -42 59 -42 95 0 21 -5 25 -30 25 -20 0 -30 5 -30 15 0 24 -42
55 -73 55 -21 0 -40 11 -64 35 -41 42 -65 44 -82 8 -8 -16 -17 -35 -21 -43 -4
-8 -24 -16 -44 -18 -33 -3 -44 3 -85 41 -27 26 -62 48 -82 52 -19 4 -39 12
-46 17 -6 5 -31 8 -55 6 -35 -2 -45 -8 -55 -29 -26 -55 -66 -59 -93 -9 -6 11
-17 20 -24 20 -7 0 -35 11 -62 25 -81 41 -134 31 -134 -26 0 -15 -4 -30 -8
-33 -5 -3 -35 9 -68 25 -66 34 -104 33 -137 -2 -16 -17 -26 -19 -73 -13 -41 5
-60 3 -79 -10 -13 -9 -38 -16 -54 -16 -17 0 -45 -6 -63 -14 -18 -8 -55 -18
-82 -23 l-50 -8 -2 -47 c-1 -39 2 -47 19 -52 17 -4 18 -7 7 -21 -19 -23 4 -37
47 -29 37 7 83 -2 83 -15 0 -5 -16 -19 -37 -31 -33 -19 -35 -22 -20 -37 16
-16 52 -20 185 -22 28 -1 52 -5 52 -9 0 -5 -36 -19 -80 -31 -83 -25 -100 -35
-81 -54 13 -13 171 -30 264 -28 72 2 115 -6 101 -18 -5 -4 -29 -15 -54 -24
-25 -9 -57 -21 -72 -26 -72 -27 38 -72 192 -79 52 -3 186 -5 298 -5 111 0 199
-3 195 -7 -19 -16 -120 -40 -167 -40 -40 0 -60 -6 -86 -25 -41 -30 -83 -32
-117 -5 -14 11 -34 20 -43 20 -34 0 -91 -31 -102 -55 -14 -32 -23 -31 -63 3
-51 42 -120 82 -143 82 -24 0 -48 -21 -57 -50 -9 -29 -41 -24 -67 10 -27 37
-74 41 -101 9 -13 -15 -23 -18 -40 -12 -36 13 -85 8 -105 -10 -10 -9 -31 -17
-46 -17 -94 0 -156 -45 -170 -121 -7 -39 3 -49 45 -49 25 0 24 -18 -3 -40 -19
-15 -20 -20 -9 -34 7 -9 25 -16 40 -16 40 0 71 -11 71 -24 0 -7 -28 -21 -63
-32 -48 -16 -62 -25 -62 -40 0 -14 10 -21 40 -27 22 -4 68 -15 102 -22 34 -8
77 -15 97 -15 20 0 36 -4 36 -9 0 -12 -53 -39 -112 -57 -29 -9 -48 -21 -48
-29 0 -39 138 -64 392 -71 175 -6 193 -17 73 -49 -32 -8 -68 -24 -80 -35 -12
-12 -38 -25 -58 -31 -40 -11 -86 -64 -70 -80 5 -5 33 -11 61 -13 29 -2 59 -9
66 -16 11 -8 40 -10 104 -5 59 5 101 3 125 -4 29 -10 47 -8 108 9 77 21 174
26 198 11 14 -9 2 -14 -91 -36 -15 -4 -32 -13 -39 -21 -6 -8 -30 -19 -53 -25
-55 -15 -166 -67 -166 -79 0 -9 13 -14 67 -25 39 -8 42 -28 9 -50 -13 -9 -31
-36 -41 -60 -9 -25 -20 -45 -25 -45 -9 0 -32 92 -34 142 -1 25 -12 50 -34 77
-47 59 -77 56 -137 -11 l-46 -53 -31 38 c-61 76 -150 98 -176 45 -16 -34 -42
-36 -83 -6 -27 20 -33 21 -62 9 -40 -16 -44 -16 -83 0 -28 11 -36 10 -60 -7
-18 -12 -48 -19 -79 -20 -64 -1 -137 -14 -152 -27 -7 -5 -13 -22 -13 -38 0
-15 -7 -35 -16 -43 -14 -15 -14 -17 1 -22 12 -5 15 -14 11 -30 -5 -19 -2 -25
18 -30 14 -3 30 -12 36 -19 9 -11 3 -16 -29 -25 -72 -19 -43 -45 72 -64 39 -7
72 -17 74 -23 3 -7 -20 -17 -54 -24 -71 -15 -93 -25 -93 -44 0 -21 59 -33 190
-40 136 -7 180 -13 180 -24 0 -5 -24 -11 -52 -14 -72 -9 -218 -58 -218 -74 0
-26 59 -44 143 -43 45 0 133 -2 195 -5 108 -7 141 -18 85 -31 -53 -11 -98 -26
-118 -39 -11 -6 -32 -15 -47 -19 -45 -10 -98 -47 -98 -66 0 -22 19 -30 73 -30
23 0 48 -7 58 -16 15 -14 27 -14 86 -5 79 12 265 11 260 -3 -2 -5 -34 -17 -72
-27 -120 -32 -159 -46 -163 -57 -6 -20 96 -62 154 -62 47 0 54 -3 54 -19 0
-16 10 -21 46 -27 25 -3 69 -3 97 1 29 4 115 9 192 11 77 1 192 8 256 16 125
14 149 13 149 -6 0 -9 -28 -15 -93 -19 -106 -7 -141 -18 -172 -51 -16 -18 -38
-26 -84 -31 -49 -6 -65 -12 -77 -30 -9 -13 -28 -26 -42 -30 -15 -3 -45 -21
-67 -40 -39 -34 -39 -35 -21 -50 13 -9 41 -15 77 -15 36 0 69 -6 87 -17 27
-15 37 -16 95 -4 58 11 69 11 89 -3 28 -20 55 -20 170 0 51 9 110 14 131 11
37 -5 54 -2 177 34 61 17 118 28 252 49 63 9 248 2 248 -11 0 -4 -24 -10 -52
-14 -29 -4 -75 -13 -102 -21 -27 -8 -80 -14 -117 -14 -57 0 -72 -4 -97 -25
-17 -14 -36 -25 -44 -25 -22 0 -38 -21 -38 -50 0 -24 5 -27 68 -39 59 -11 280
-21 442 -20 489 5 696 -2 801 -29 143 -36 334 -124 405 -187 32 -29 60 -87 71
-150 3 -16 13 -39 23 -50 51 -60 96 -228 105 -395 6 -118 11 -164 46 -425 26
-191 35 -256 48 -330 16 -87 14 -115 -5 -115 -27 0 -168 88 -206 128 -20 20
-40 49 -44 65 -13 39 1 240 27 389 21 126 21 127 2 160 -16 27 -26 34 -61 38
l-43 5 31 48 c30 47 31 56 13 120 -2 10 -14 17 -28 17 -41 0 -71 17 -92 52
-15 25 -30 36 -66 46 -59 15 -100 15 -114 1 -9 -9 -20 -9 -42 1 -42 17 -78 1
-113 -51 -27 -37 -59 -51 -73 -30 -4 8 -10 50 -15 112 0 4 -11 10 -25 13 -15
4 -25 14 -25 25 0 19 -29 51 -47 51 -5 0 -18 9 -28 20 -10 11 -26 20 -35 20
-23 0 -70 -38 -70 -55 0 -8 -18 -19 -40 -25 -39 -10 -70 -47 -70 -83 0 -7 -10
-22 -23 -33 -16 -14 -27 -41 -36 -89 -8 -39 -22 -80 -32 -93 l-18 -23 -11 21
c-7 13 -11 72 -10 153 0 73 -1 153 -4 178 -6 61 -31 109 -56 109 -11 0 -28 10
-39 22 -30 32 -73 58 -96 58 -29 0 -92 -68 -100 -110 -4 -19 -18 -45 -31 -57
-14 -13 -24 -34 -24 -50 0 -37 -19 -103 -29 -103 -25 0 -29 136 -6 220 8 30
15 75 15 98 0 36 -4 45 -20 49 -12 3 -27 18 -36 34 -11 23 -21 29 -47 29 -22
0 -36 -7 -45 -20 -7 -12 -23 -25 -36 -30 -26 -10 -116 -136 -116 -163 0 -9 -4
-17 -10 -17 -17 0 -30 38 -30 89 0 46 -20 98 -52 138 -16 20 -98 44 -117 34
-9 -5 -32 -32 -51 -60 -19 -28 -39 -50 -45 -48 -5 2 -20 30 -32 62 -26 66 -57
105 -85 105 -27 0 -58 -18 -58 -34 0 -8 -7 -19 -15 -26 -12 -10 -19 -7 -40 16
-14 15 -25 35 -25 44 0 31 -58 41 -80 15 -19 -23 -48 -18 -62 13 -11 21 -19
26 -38 23 -14 -2 -68 -4 -120 -5 l-95 -1 -10 -67 c-6 -37 -18 -75 -27 -85 -22
-24 -23 -49 -3 -57 19 -7 19 -30 0 -46 -25 -21 -17 -37 28 -62 55 -30 54 -50
-2 -64 -93 -22 -80 -66 28 -104 40 -14 73 -29 73 -35 1 -5 -14 -17 -31 -25
-145 -71 -88 -120 143 -125 83 -2 112 -18 54 -29 -42 -8 -148 -58 -171 -80
-23 -23 -22 -31 10 -61 26 -24 32 -25 123 -21 52 2 107 9 122 15 42 16 229 33
263 23 27 -8 23 -10 -45 -21 -144 -23 -181 -33 -198 -50 -9 -10 -40 -30 -69
-46 -50 -27 -69 -48 -58 -66 3 -4 36 -17 73 -27 82 -22 215 -21 347 3 100 19
495 32 589 21 101 -13 48 -26 -105 -26 -100 0 -158 -4 -172 -12 -12 -7 -60
-15 -107 -18 -68 -4 -93 -11 -118 -29 -20 -14 -63 -28 -113 -37 -48 -8 -91
-22 -106 -34 -34 -26 -49 -25 -86 6 -24 21 -37 24 -61 19 -17 -4 -57 -6 -90
-6 -37 1 -66 -4 -81 -13 -15 -10 -54 -16 -112 -18 l-88 -3 3 -49 c2 -35 -1
-53 -14 -68 -15 -15 -16 -23 -7 -38 14 -21 2 -35 -32 -42 -39 -7 -29 -36 24
-65 28 -15 49 -32 48 -38 -2 -5 -21 -13 -42 -17 -41 -9 -55 -21 -55 -49 0 -19
127 -69 173 -69 52 0 27 -19 -61 -46 -109 -33 -122 -44 -91 -73 21 -20 34 -21
178 -21 156 0 186 -7 86 -21 -30 -4 -66 -16 -80 -27 -14 -12 -40 -24 -58 -27
-18 -4 -53 -17 -79 -28 -60 -28 -61 -53 -3 -82 37 -18 63 -20 330 -21 299 -2
475 -11 475 -24 0 -4 -91 -10 -202 -11 -174 -3 -207 -7 -228 -21 -16 -12 -43
-18 -80 -18 -36 0 -70 -7 -95 -20 -21 -11 -55 -23 -74 -26 -20 -4 -58 -18 -86
-32 l-49 -24 23 -19 c13 -11 34 -19 47 -19 13 0 32 -9 41 -20 14 -16 30 -20
80 -20 47 0 64 -4 71 -17 8 -14 23 -15 113 -10 65 3 111 1 123 -5 13 -7 138
-11 347 -12 291 -1 354 -5 338 -20 -2 -3 -52 -8 -109 -11 -72 -5 -117 -13
-143 -26 -21 -11 -58 -19 -86 -19 -64 0 -111 -17 -111 -40 0 -18 -29 -28 -113
-36 -50 -5 -77 -20 -77 -44 0 -15 -9 -21 -40 -26 -23 -4 -53 -16 -67 -27 -15
-12 -40 -28 -57 -37 -16 -8 -32 -21 -34 -28 -5 -15 57 -42 97 -42 17 0 34 -7
38 -15 7 -12 22 -13 97 -5 100 12 122 8 129 -22 6 -20 9 -21 99 -13 51 4 138
9 193 10 55 1 138 9 185 19 219 43 327 56 489 56 130 0 181 -4 250 -20 171
-41 405 -127 374 -137 -6 -2 -81 18 -166 46 -212 68 -407 96 -520 74 -68 -14
-76 -18 -74 -37 2 -20 -3 -21 -102 -26 -72 -3 -106 -9 -109 -18 -9 -27 -34
-41 -89 -48 -45 -5 -63 -13 -85 -36 -14 -16 -40 -33 -56 -39 -28 -10 -57 -52
-47 -68 2 -5 23 -11 44 -15 22 -3 49 -16 60 -27 16 -17 30 -21 73 -19 84 4 90
2 83 -19 -11 -35 26 -40 165 -22 55 7 120 8 184 2 73 -6 112 -5 149 5 27 7 54
11 61 8 12 -5 260 37 336 56 175 44 349 42 439 -5 17 -8 35 -15 40 -15 19 0
158 -67 257 -125 52 -30 98 -55 100 -55 3 0 37 -22 77 -49 71 -48 97 -81 97
-123 0 -12 11 -60 25 -107 50 -171 114 -407 124 -461 33 -164 80 -414 91 -480
6 -41 18 -103 26 -137 18 -79 18 -122 0 -129 -16 -6 -155 67 -272 143 -62 40
-84 61 -97 90 -30 72 -29 86 12 175 21 45 45 106 55 133 75 229 76 233 76 322
0 116 -21 140 -78 88 -24 -22 -62 -34 -62 -20 0 3 16 37 36 76 29 59 35 82 37
142 l2 72 -50 0 -50 0 -5 60 c-5 65 -9 68 -82 50 -27 -7 -28 -6 -28 29 0 37
-3 39 -65 48 -12 2 -21 12 -23 26 -3 20 -13 27 -36 23 -4 -1 -19 5 -32 14 -36
23 -98 19 -144 -10 -22 -14 -40 -31 -40 -38 0 -8 -15 -20 -32 -28 -28 -12 -33
-19 -33 -49 0 -31 -3 -35 -35 -41 -47 -10 -61 -31 -49 -75 6 -19 7 -39 4 -44
-3 -6 -28 -9 -54 -8 -29 1 -55 -3 -65 -11 -24 -20 -20 -76 9 -128 14 -25 24
-48 21 -51 -3 -2 -29 0 -57 5 -46 9 -54 8 -71 -9 -20 -20 -17 -50 8 -79 8 -8
14 -20 14 -25 0 -5 20 -31 45 -58 25 -27 45 -53 45 -57 0 -10 -22 -16 -85 -25
-64 -9 -111 -35 -107 -60 7 -51 14 -64 42 -81 19 -11 30 -26 30 -39 0 -21 65
-74 91 -74 6 0 26 -9 44 -20 38 -24 323 -121 455 -155 64 -17 102 -33 119 -50
38 -37 17 -42 -46 -11 -81 39 -181 76 -210 76 -22 0 -23 -3 -17 -37 4 -21 8
-41 10 -45 2 -3 37 -16 76 -29 70 -22 71 -24 36 -27 -26 -2 -65 9 -135 38
-210 89 -385 110 -690 85 -118 -10 -155 -48 -96 -99 l27 -24 -39 -11 c-22 -6
-49 -11 -61 -11 -37 0 -122 -30 -128 -45 -4 -11 -22 -15 -74 -15 -60 0 -71 -3
-92 -25 -13 -14 -35 -25 -49 -25 -31 0 -45 -9 -54 -32 -4 -11 -17 -18 -30 -18
-28 0 -77 -35 -77 -55 0 -8 8 -18 18 -23 27 -15 152 -21 214 -11 35 6 73 6 98
0 33 -7 55 -4 120 17 71 23 82 24 107 12 21 -11 66 -13 184 -11 129 3 161 0
188 -13 25 -13 48 -16 109 -11 161 13 321 68 431 148 73 54 99 61 194 52 61
-6 81 -13 130 -46 32 -21 62 -39 67 -39 5 0 44 -16 87 -35 114 -52 230 -132
248 -169 52 -111 103 -253 122 -336 3 -14 11 -32 18 -40 7 -8 15 -33 17 -55
11 -81 41 -163 63 -169 64 -18 185 5 185 34 0 6 -36 117 -81 247 -44 131 -84
252 -89 268 -68 243 -77 286 -99 465 -5 47 -15 121 -20 165 -6 44 -13 120 -17
168 l-7 88 33 34 c19 19 61 74 95 122 33 49 67 88 75 88 8 0 13 -7 11 -15 -8
-35 -13 -191 -7 -224 9 -45 38 -59 91 -45 35 10 40 9 74 -25 44 -43 102 -50
123 -16 19 29 45 25 89 -15 46 -41 88 -46 134 -15 39 26 57 25 89 -5 33 -30
78 -33 106 -5 23 23 57 25 84 5 25 -19 45 -19 65 -1 13 12 25 12 62 4 63 -15
103 -4 95 24 -3 12 0 28 6 35 6 7 8 22 5 34 -3 12 1 32 9 44 19 28 10 50 -26
65 -42 18 -44 36 -4 59 19 11 34 25 34 30 0 15 -42 41 -65 41 -12 0 -30 7 -41
15 -19 15 -19 15 5 36 31 26 20 48 -35 69 -63 24 -68 29 -49 50 9 10 15 30 13
46 -3 29 -2 29 45 27 27 -2 57 -7 67 -13 10 -5 39 -10 64 -10 39 0 47 4 58 27
22 44 42 50 95 29 27 -10 68 -19 92 -20 39 -1 46 2 61 29 17 29 19 30 80 27
86 -5 110 2 110 33 0 14 3 26 8 26 4 1 29 3 55 4 40 2 54 8 77 34 17 18 39 31
53 31 35 0 53 25 36 47 -27 37 -101 103 -115 103 -9 0 -14 11 -14 35 l0 35
-64 0 c-63 0 -65 1 -68 28 -3 30 1 29 -126 18 -71 -6 -73 -5 -67 15 7 21 6 21
-89 14 -64 -4 -96 -3 -96 3 0 6 5 14 10 17 14 8 3 25 -13 20 -7 -2 -56 -20
-111 -40 -54 -20 -101 -33 -105 -30 -9 10 60 64 99 76 19 6 78 13 131 16 84 5
107 2 189 -22 76 -21 105 -25 150 -20 30 4 90 6 133 6 53 -1 88 4 109 15 24
12 46 14 98 9 60 -6 72 -4 97 14 24 17 34 19 68 11 41 -9 85 -4 85 10 0 4 26
10 58 14 109 11 132 17 132 35 0 10 -7 26 -15 37 -8 10 -15 25 -15 32 0 7 -10
26 -22 42 -19 26 -28 30 -72 31 -70 0 -129 12 -133 26 -3 7 18 16 54 24 85 18
84 26 -3 34 -110 9 -109 9 -109 25 0 22 -22 29 -91 29 -42 1 -66 6 -74 16 -18
22 -8 28 53 32 37 3 104 -7 233 -36 99 -22 196 -41 215 -41 18 0 66 0 104 -2
82 -2 291 4 372 11 6 1 13 9 15 18 3 15 16 18 91 19 49 1 93 6 99 12 14 14
-40 82 -65 82 -20 0 -55 17 -74 36 -7 7 -45 18 -85 24 -40 7 -92 23 -114 37
-23 13 -80 31 -125 39 -46 9 -89 20 -94 24 -6 5 -51 12 -100 16 -86 7 -88 8
-50 18 27 6 95 5 210 -3 172 -12 226 -22 368 -67 43 -13 91 -24 106 -24 16 0
62 -13 102 -29 41 -16 94 -32 118 -35 24 -4 56 -13 72 -21 38 -20 129 -20 129
-1 0 19 -86 91 -182 154 -75 48 -163 87 -258 113 -78 21 -70 31 20 24 83 -7
274 -57 285 -76 4 -5 17 -9 30 -9 12 0 54 -15 91 -34 155 -75 282 -74 171 2
-23 17 -56 44 -74 61 -18 17 -44 33 -58 37 -14 3 -24 9 -21 11 9 9 119 -28
175 -60 31 -17 74 -45 96 -63 46 -37 133 -77 147 -68 5 3 7 17 4 30 -8 30 16
32 69 7 50 -24 62 -7 28 40 -14 20 -24 40 -20 43 3 3 29 -5 58 -19 l53 -25 35
29 c20 17 47 29 63 29 53 0 30 27 -44 55 -40 15 -80 31 -88 36 -8 5 -31 16
-50 24 -19 8 -56 26 -81 40 -25 13 -65 27 -88 31 -27 4 -61 21 -90 43 -42 33
-51 36 -105 34 -69 -3 -96 9 -96 42 0 52 -97 86 -144 50 -32 -24 -62 -19 -76
14 -21 51 -43 63 -124 68 l-74 5 -45 -41 c-49 -46 -77 -53 -77 -20 0 43 -24
101 -44 108 -12 4 -72 8 -134 10 l-112 2 -38 -38 c-20 -21 -44 -54 -53 -73 -9
-19 -22 -46 -29 -60 -6 -14 -16 -32 -23 -40 -19 -26 -167 -123 -174 -116 -4 4
23 35 60 69 37 34 67 68 67 76 0 7 13 37 30 66 30 52 30 52 10 70 -13 12 -20
31 -20 55 0 24 -7 43 -20 55 -11 10 -20 29 -20 42 0 13 -7 26 -16 30 -8 3 -20
16 -25 29 -10 28 -31 30 -112 9 -32 -8 -67 -15 -78 -15 -11 0 -34 -14 -51 -30
-16 -17 -39 -30 -52 -30 -34 0 -65 -27 -72 -65 -6 -33 -21 -53 -59 -80 -17
-11 -20 -25 -20 -92 -1 -65 -7 -94 -38 -177 -62 -165 -148 -286 -202 -286 -21
0 -19 10 12 55 15 22 53 82 85 134 53 87 56 96 42 112 -14 15 -13 22 15 71 17
30 31 58 31 61 0 4 -14 14 -31 23 -25 12 -30 20 -24 37 17 56 17 65 -3 71 -15
5 -19 15 -18 44 1 33 -2 37 -26 40 -21 3 -27 9 -30 30 -3 24 -7 27 -41 26 -25
-1 -53 -12 -82 -33 -24 -17 -60 -34 -82 -39 -33 -6 -42 -15 -64 -57 -29 -58
-57 -74 -137 -82 -41 -4 -67 -14 -92 -33 -19 -15 -53 -35 -74 -45 -22 -11 -46
-32 -55 -49 -28 -53 -57 -76 -95 -76 -39 0 -58 -15 -74 -57 -18 -47 -45 -269
-51 -418 l-6 -140 -26 2 c-14 1 -43 8 -63 17 -38 16 -38 16 -22 41 10 15 16
46 16 85 l0 60 -30 0 c-16 0 -30 4 -30 10 0 5 16 39 35 74 19 36 35 69 35 74
0 5 -13 12 -30 16 -29 5 -30 8 -30 55 0 27 -4 53 -10 56 -5 3 -10 15 -10 25 0
10 -25 40 -55 66 -54 47 -55 48 -36 68 25 28 17 44 -25 52 -41 8 -50 19 -33
41 11 13 10 17 -6 29 -10 8 -33 14 -49 14 -38 0 -51 9 -51 35 0 17 -8 20 -60
23 -73 4 -86 14 -57 45 12 13 22 27 22 31 0 5 -28 6 -62 2 -61 -6 -62 -6 -35
10 35 19 75 21 147 5 100 -23 149 -25 169 -7 10 9 31 18 47 20 75 10 111 20
129 36 36 32 63 40 128 40 54 0 68 4 91 25 21 20 38 25 77 25 37 0 53 5 66 20
10 12 30 20 48 20 38 0 139 51 143 72 2 9 -14 39 -35 67 -35 47 -41 51 -79 51
-45 0 -114 24 -114 40 0 6 42 10 103 10 85 0 107 3 132 20 17 11 43 20 58 20
29 0 121 42 132 61 23 36 143 60 321 63 l89 1 3 28 3 29 137 -2 c75 -1 180 3
232 10 52 7 154 13 225 15 150 3 237 15 242 32 7 20 -53 50 -182 93 -93 31
-146 42 -237 50 -64 5 -129 15 -145 21 -26 10 -27 12 -8 19 11 5 80 9 153 9
163 1 438 -43 555 -88 31 -12 214 2 230 18 25 25 -189 139 -321 170 -28 7 -55
17 -58 22 -9 15 235 10 326 -7 180 -33 263 -36 228 -7 -7 6 -56 33 -108 59
-78 40 -90 49 -69 52 15 2 81 -13 147 -33 128 -39 157 -41 157 -11 0 13 -20
26 -72 48 -40 17 -73 35 -73 39 0 16 74 9 148 -13 57 -16 75 -19 85 -9 9 9 7
16 -13 31 -25 20 -22 23 15 21 11 -1 27 3 35 8 34 23 -80 100 -148 101 -19 0
-67 13 -109 30 -41 17 -91 30 -111 30 -20 1 -55 7 -77 15 -61 22 -108 19 -134
-9 l-23 -24 -59 24 c-33 12 -81 26 -106 30 -25 4 -64 17 -87 30 -51 29 -112
39 -150 25 -27 -11 -28 -14 -22 -52 7 -43 -5 -69 -30 -69 -8 0 -14 6 -14 14 0
7 -26 29 -57 50 -68 42 -131 48 -198 17 -55 -25 -81 -58 -88 -110 -9 -74 -54
-82 -75 -14 -10 30 -21 44 -42 53 -16 7 -32 20 -35 30 -3 10 -20 23 -37 29
-18 6 -40 19 -51 28 -26 24 -91 19 -160 -12 -50 -23 -58 -31 -67 -66 -6 -23
-17 -39 -26 -39 -8 0 -19 -11 -24 -25 -8 -21 -16 -25 -52 -25 -24 0 -52 -7
-62 -15 -11 -8 -28 -15 -39 -15 -10 0 -43 -12 -73 -26 -52 -25 -56 -25 -74 -9
-17 16 -26 16 -87 5 -37 -6 -91 -20 -118 -31 -28 -10 -61 -19 -73 -19 -27 0
-76 -24 -115 -56 -16 -13 -38 -24 -50 -24 -12 0 -36 -8 -53 -19 -24 -15 -33
-30 -44 -75 -8 -35 -21 -63 -34 -72 -12 -8 -28 -36 -37 -62 -17 -50 -26 -54
-84 -32 l-28 11 26 27 c34 35 58 102 45 125 -6 11 -5 24 2 38 14 24 6 49 -14
49 -8 0 -21 13 -29 30 -13 26 -13 31 1 42 8 7 37 14 64 14 67 2 66 2 70 27 3
20 9 22 88 27 93 6 110 12 110 40 0 21 19 30 64 30 23 0 41 9 60 29 34 36 29
57 -16 66 -18 4 -37 10 -43 14 -5 3 -30 13 -55 21 -33 11 -46 21 -48 38 -5 34
-39 50 -117 57 -38 4 -90 16 -115 28 -31 14 -73 22 -135 25 -63 3 -93 9 -101
19 -9 13 -27 13 -150 -2 -76 -9 -190 -30 -252 -46 -178 -46 -186 -38 -34 30
86 38 108 44 260 61 188 22 388 25 612 9 149 -10 153 -10 175 11 21 20 27 21
125 11 56 -6 124 -11 151 -11 44 0 51 3 59 26 9 24 14 26 48 20 20 -4 54 -9
75 -13 44 -6 67 8 49 30 -16 19 -5 27 39 27 25 0 42 6 51 18 7 9 25 23 41 29
15 7 27 20 27 28 0 20 -63 47 -93 40 -17 -5 -28 1 -45 24 -19 26 -30 31 -62
31 -25 0 -46 7 -57 18 -32 33 -77 44 -164 40 -77 -3 -84 -1 -87 17 -9 45 -19
48 -152 42 -69 -3 -186 -13 -260 -22 -119 -13 -148 -21 -243 -61 -60 -25 -111
-43 -114 -40 -4 3 -4 8 -2 9 110 90 359 180 504 183 484 12 610 19 610 34 0
12 21 16 110 20 113 5 135 11 135 35 0 9 19 16 58 20 74 8 83 12 89 33 2 9 19
24 36 32 48 22 47 47 -2 60 -23 6 -41 15 -41 20 0 24 -34 40 -86 40 -39 0 -54
4 -54 14 0 36 -25 41 -250 48 -101 4 -277 -18 -370 -45 -124 -35 -140 -39
-140 -27 0 21 157 88 270 115 88 21 159 29 305 37 161 9 193 13 214 29 14 12
40 19 65 19 65 0 114 18 138 50 12 17 28 30 35 30 16 0 63 48 63 64 0 6 -19
17 -42 23 -173 45 -171 45 -290 39 -77 -4 -119 -2 -123 5 -4 6 -5 13 -2 15 15
15 163 44 251 49 82 5 104 9 117 25 13 15 32 20 95 22 78 3 79 3 84 31 3 16
15 33 30 40 13 7 30 23 37 37 11 22 9 27 -22 57 -23 23 -50 36 -81 42 -25 5
-51 14 -57 20 -18 18 14 42 64 48 24 3 53 14 64 24 11 10 36 25 55 33 19 8 55
33 80 56 l45 42 -23 18 c-16 14 -32 17 -57 13 -80 -13 -77 54 3 82 25 8 79 15
119 15 102 0 145 26 88 52 -43 19 -30 36 34 44 48 5 58 9 54 22 -5 13 3 14 55
9 34 -3 62 -1 62 3 0 4 24 14 53 20 28 7 56 19 60 26 4 8 21 14 37 14 39 0 38
15 -2 36 -33 17 -114 31 -240 40 -40 4 -72 11 -79 20 -15 18 -77 18 -109 -1
-33 -19 -68 -19 -87 1 -24 24 -74 12 -151 -35 l-66 -40 -34 21 c-23 14 -42 18
-63 14 -43 -8 -111 -60 -147 -112 -33 -46 -51 -54 -72 -29 -7 8 -16 15 -20 15
-4 0 -49 -27 -99 -60 l-91 -60 0 -55 c0 -30 -4 -55 -8 -55 -5 0 -24 20 -42 45
-20 26 -45 48 -60 51 -14 3 -33 8 -42 10 -21 6 -99 -49 -116 -82 -18 -34 -52
-39 -100 -15 -23 12 -53 21 -67 21 -18 0 -25 5 -25 20 0 17 -7 20 -38 20 -22
0 -65 9 -97 20 -32 11 -70 20 -84 20 -14 0 -21 4 -15 8 12 12 201 32 293 32
51 0 79 5 90 14 10 9 54 19 110 24 51 5 98 15 104 21 6 6 31 11 55 11 48 0
122 19 122 30 0 14 -24 28 -110 66 -84 37 -87 37 -204 36 -66 -1 -116 2 -110
6 11 10 240 62 272 62 13 0 36 7 52 15 15 8 53 18 84 21 56 7 116 35 116 54 0
18 -82 49 -130 51 l-45 1 40 13 c22 7 69 27 105 44 36 17 71 31 78 31 18 0 92
39 92 48 0 23 -30 32 -109 33 -48 0 -95 4 -106 9 -19 7 -19 8 5 17 14 6 67 20
117 33 110 27 161 54 143 75 -6 8 -24 15 -38 17 -43 5 -32 30 26 61 52 28 69
57 33 57 -33 0 -34 19 -1 38 24 13 29 22 25 39 -4 16 1 25 15 33 13 7 20 21
20 40 0 28 -3 30 -36 30 -34 0 -68 -7 -155 -32 -26 -7 -42 -7 -58 2 -30 15
-66 6 -93 -25 -22 -25 -62 -33 -73 -15 -3 6 -20 10 -36 10 -30 0 -49 -15 -97
-79 -37 -49 -63 -39 -86 33 -5 15 -13 17 -40 12 -24 -5 -49 1 -91 19 -72 32
-63 45 33 49 39 1 75 5 78 9 4 4 -4 15 -16 25 -32 26 -18 46 27 37 24 -4 42
-1 59 10 31 20 30 31 -1 39 -31 8 -25 22 14 31 28 6 101 63 101 79 0 4 -54 7
-121 5 -106 -4 -122 -2 -130 14 -13 23 -76 23 -125 0 l-36 -18 -23 29 c-20 25
-28 28 -60 23 -20 -3 -58 -20 -86 -36 -62 -39 -74 -39 -86 2 -8 30 -12 32 -54
31 -43 0 -81 -21 -178 -96 -32 -25 -50 -23 -61 7 -6 15 -17 25 -29 25 -10 0
-56 -34 -102 -76 -79 -71 -119 -101 -119 -90 0 3 8 21 17 40 16 35 16 36 -10
56 -26 21 -26 22 -12 57 15 36 9 52 -18 53 -18 0 -111 -53 -140 -81 -20 -19
-38 -28 -50 -25 -31 8 -91 -56 -116 -122 -39 -108 -91 -165 -91 -100 0 24 7
39 25 52 14 10 25 24 25 31 0 6 -11 18 -25 25 -25 13 -35 40 -15 40 6 0 10 7
10 15 0 8 -4 15 -10 15 -5 0 -10 6 -10 14 0 9 18 16 58 20 108 13 115 22 47
62 -25 14 -42 30 -39 35 3 5 31 9 64 9 44 0 59 4 64 16 5 13 21 15 94 13 53
-2 96 2 109 9 12 7 35 12 52 12 41 0 42 31 1 62 -16 12 -30 28 -30 35 0 18 27
23 175 31 121 6 130 8 130 27 0 13 -13 26 -37 38 -21 9 -38 21 -38 26 0 5 35
16 78 26 102 22 132 34 132 55 0 9 -12 22 -26 29 -14 6 -24 17 -21 24 5 17 47
37 80 37 42 0 69 18 62 40 -4 14 2 21 30 30 35 12 44 23 25 35 -15 10 -12 25
8 32 9 4 36 26 59 49 62 61 50 67 -141 63 -135 -3 -157 -1 -174 14 -23 21 -68
22 -114 3 -36 -16 -51 -12 -61 17 -9 25 -64 22 -112 -8 -51 -31 -73 -31 -87 0
-6 13 -19 27 -28 30 -17 5 -121 -40 -189 -83 -40 -25 -46 -22 -66 24 -8 19
-19 34 -25 34 -20 0 -148 -67 -197 -103 -76 -56 -99 -86 -112 -149 -7 -32 -17
-60 -22 -63 -15 -10 -23 26 -11 46 7 10 12 50 13 88 2 86 -13 113 -72 132 -51
17 -63 39 -22 39 15 1 62 8 103 16 41 8 117 19 168 23 102 9 137 26 112 55 -7
9 -18 16 -26 16 -18 0 -28 20 -17 31 6 6 39 17 74 25 35 8 74 16 87 19 30 7
28 23 -5 36 l-28 11 24 19 c13 11 35 22 50 26 37 8 50 21 44 43 -4 16 2 23 26
31 18 6 31 18 31 27 0 10 23 38 51 63 73 64 64 71 -82 67 -85 -2 -121 1 -130
10 -16 15 -63 16 -106 0 -29 -11 -35 -10 -56 10 -34 32 -68 28 -125 -18 -28
-21 -53 -44 -57 -50 -3 -5 -13 -10 -20 -10 -10 0 -14 11 -12 38 2 36 0 38 -50
62 -29 14 -52 29 -50 34 5 14 124 52 189 60 30 4 64 14 74 21 18 14 18 15 -5
34 -28 22 -23 33 30 67 28 17 39 31 39 49 0 16 10 30 30 42 17 10 29 25 28 33
-2 9 12 34 30 55 34 42 41 72 18 81 -8 3 -59 0 -113 -6 -109 -13 -127 -13
-194 -4 -42 5 -50 3 -83 -26 -32 -29 -42 -32 -78 -27 -50 7 -68 -2 -131 -60
l-48 -44 -30 25 c-22 19 -42 26 -70 26 -51 0 -73 -11 -131 -67 l-46 -46 -27
27 c-14 14 -33 26 -41 26 -27 0 -88 -51 -127 -106 -40 -56 -59 -65 -88 -38
-10 9 -26 13 -36 10 -48 -15 -118 -108 -159 -212 -15 -38 -36 -82 -45 -98 -15
-25 -19 -27 -25 -13 -3 10 -3 32 0 50 4 18 11 56 16 86 12 69 78 172 136 212
24 16 117 62 206 102 199 89 283 137 283 161 0 14 27 29 115 63 63 24 135 51
159 59 67 21 76 32 51 59 -28 30 -16 39 104 69 54 14 101 28 105 31 3 4 -2 13
-13 20 -27 20 -13 42 33 50 45 7 58 19 63 55 2 16 14 30 33 40 39 19 135 109
135 126 0 20 -35 26 -98 18 -31 -4 -104 -8 -162 -9 -65 -1 -118 -7 -138 -15
-27 -12 -36 -12 -53 -2 -31 20 -151 -21 -193 -65 -36 -39 -53 -42 -62 -9 -3
14 -12 27 -20 30 -35 13 -132 -62 -149 -113 -9 -30 -43 -36 -73 -14 -14 11
-27 24 -30 31 -2 6 25 31 60 56 35 25 77 56 94 70 18 14 35 26 38 26 3 0 49
20 101 45 80 38 95 49 95 69 0 30 19 46 60 51 44 5 80 31 80 58 1 14 15 33 41
52 23 17 57 42 78 57 62 45 50 53 -71 51 -89 -2 -118 -7 -173 -29 -36 -14 -72
-23 -81 -20 -24 9 -102 -21 -146 -55 -27 -22 -45 -29 -61 -25 -16 4 -35 -5
-66 -29 -46 -36 -56 -41 -65 -27 -9 15 106 122 167 155 35 20 57 38 57 49 0
12 18 23 64 37 91 28 145 58 156 86 5 13 18 26 29 30 11 3 34 27 51 52 39 57
30 66 -54 58 -35 -3 -73 0 -92 7 -28 10 -40 8 -92 -15 -33 -15 -71 -27 -86
-27 -15 0 -58 -16 -97 -36 -100 -50 -117 -42 -54 25 27 29 73 68 101 87 32 21
56 46 62 63 6 18 34 46 71 72 41 29 61 50 61 63 0 12 9 35 20 51 12 18 20 47
20 73 0 38 -2 42 -24 42 -13 0 -29 -7 -36 -15 -7 -8 -18 -15 -25 -15 -7 0 -39
-13 -70 -30 -31 -16 -62 -30 -69 -30 -6 0 -31 -14 -55 -30 -24 -17 -46 -28
-49 -26 -11 12 11 58 50 102 51 58 62 74 89 133 39 82 7 184 -45 146 -35 -25
-98 -57 -103 -51 -3 2 7 24 21 49 14 24 26 53 26 63 0 11 7 29 15 40 21 28 19
81 -4 94 -28 14 -57 13 -92 -6 -36 -18 -48 -11 -31 16 7 11 12 29 12 39 0 11
5 23 10 26 6 3 10 26 10 51 l0 45 -52 -3 c-49 -3 -53 -1 -56 20 -2 13 4 35 13
49 10 15 14 34 11 49 -6 21 -12 24 -52 24 l-45 0 3 52 c3 48 1 52 -22 58 -21
5 -25 11 -22 40 2 22 -4 40 -17 54 -11 12 -21 35 -23 51 -4 41 -36 44 -65 6z
m-845 -3011 c4 -21 -23 -55 -36 -46 -7 4 -12 21 -12 37 0 26 3 30 22 27 13 -2
24 -10 26 -18z m303 -105 c159 -63 179 -75 222 -135 35 -50 37 -58 37 -129 0
-42 -5 -116 -11 -166 -19 -155 -40 -135 -58 55 -13 132 -13 130 -107 281 -36
58 -113 60 -135 3 -15 -40 -42 -27 -51 24 -4 23 -16 56 -28 71 -11 16 -20 32
-20 35 0 14 44 3 151 -39z m1319 -69 c0 -2 -7 -20 -15 -40 -15 -35 -37 -47
-50 -26 -10 17 24 70 45 70 11 0 20 -2 20 -4z m-325 -116 c6 -10 -21 -77 -36
-85 -8 -6 -39 45 -39 64 0 5 12 14 28 19 36 14 40 14 47 2z m-225 -86 c0 -3
-11 -20 -25 -38 -14 -18 -25 -40 -25 -48 0 -18 -34 -51 -43 -41 -4 3 -7 17 -7
30 0 19 -5 23 -30 23 -33 0 -40 19 -15 40 28 23 145 51 145 34z m-1207 -251
c27 -7 4 -29 -41 -38 -30 -6 -39 -3 -54 15 -10 12 -15 26 -12 32 6 9 62 4 107
-9z m197 -54 c52 -16 113 -36 135 -42 44 -13 54 -40 17 -45 -12 -2 -27 -12
-32 -22 -5 -10 -18 -21 -27 -24 -10 -3 -28 -24 -41 -46 -13 -23 -28 -38 -34
-34 -5 4 -21 31 -35 62 -13 30 -42 75 -64 100 -38 44 -51 82 -27 82 7 0 55
-14 108 -31z m1610 -88 c0 -14 -59 -61 -76 -61 -8 0 -25 -21 -37 -47 -30 -64
-90 -163 -99 -163 -12 0 -20 39 -13 69 4 19 1 32 -10 41 -8 7 -15 22 -15 35 0
16 -8 24 -32 31 -17 5 -33 14 -35 20 -4 11 136 54 178 54 13 1 35 7 49 15 28
16 90 20 90 6z m-1275 -34 c42 -24 97 -107 109 -168 12 -56 17 -479 6 -479 -5
0 -21 22 -35 50 -20 40 -25 64 -25 125 0 119 -34 286 -79 392 -48 112 -45 119
24 80z m875 -117 c0 -23 -45 -70 -67 -70 -39 0 -52 -34 -79 -218 -4 -33 -10
-42 -22 -40 -11 2 -18 15 -20 38 -4 53 -29 98 -55 102 -12 2 -26 13 -32 26
-14 31 -30 28 -61 -14 -15 -19 -46 -48 -70 -64 -67 -47 -104 -103 -141 -213
-30 -91 -34 -117 -40 -254 -3 -84 -10 -153 -14 -153 -17 0 -31 106 -36 277
l-5 182 28 71 c28 70 31 73 122 137 50 35 129 80 175 99 45 19 107 46 137 59
91 41 180 58 180 35z m713 -557 c4 -3 -17 -23 -48 -44 -34 -25 -55 -47 -55
-60 0 -14 -7 -19 -28 -19 -39 0 -53 -19 -107 -135 -67 -145 -77 -165 -87 -165
-13 0 -10 21 12 80 29 79 27 94 -10 87 -35 -7 -37 1 -14 46 16 30 16 32 -5 45
-11 8 -21 21 -21 28 0 65 -261 -142 -310 -245 -25 -54 -43 -63 -60 -31 -6 11
-18 20 -26 20 -8 0 -20 14 -25 30 -11 30 -18 34 -52 31 -10 -2 -21 8 -26 22
-6 14 -21 27 -36 31 -21 5 -36 -2 -86 -46 -33 -29 -67 -63 -75 -76 -12 -18
-21 -22 -43 -17 -26 6 -30 2 -54 -52 -60 -134 -65 -157 -73 -290 -7 -128 -6
-130 25 -214 18 -49 31 -105 31 -131 0 -54 -24 -118 -44 -118 -16 0 -21 13
-31 80 -4 25 -20 85 -36 133 -28 86 -29 95 -29 292 l0 203 43 58 c76 104 119
134 268 186 74 26 179 59 234 73 55 15 134 37 175 51 41 13 109 32 150 43 41
10 76 23 77 28 2 5 -13 14 -34 19 -96 24 -12 49 157 46 68 -1 102 3 120 13 23
13 98 12 123 -2z m1486 -220 c-37 -47 -81 -84 -94 -79 -8 3 -32 10 -54 16 -23
6 -41 15 -41 20 0 15 122 57 174 59 26 1 27 -1 15 -16z m-4691 -354 c-6 -63
-68 -61 -68 2 0 27 3 29 36 29 34 0 35 -1 32 -31z m240 12 c10 -5 95 -6 194
-2 248 9 270 -1 77 -35 -43 -7 -105 -61 -115 -99 -3 -14 -13 -25 -22 -25 -29
0 -52 -31 -52 -71 0 -21 -4 -40 -9 -43 -15 -10 -41 41 -53 102 -11 59 -45 101
-110 137 -16 9 -28 20 -28 25 0 17 91 26 118 11z m3472 -111 c0 -11 -7 -23
-16 -27 -17 -6 -86 14 -112 33 -14 11 -6 13 56 14 66 0 72 -2 72 -20z m-2945
-46 l95 -7 -4 -30 c-2 -16 -10 -34 -20 -39 -9 -5 -23 -22 -31 -38 -8 -16 -25
-30 -37 -32 -32 -4 -44 -67 -23 -127 15 -44 13 -64 -4 -45 -12 13 -38 108 -46
171 -4 29 -13 54 -20 57 -8 3 -24 24 -35 47 -18 34 -19 43 -8 50 7 5 19 7 26
4 7 -3 55 -8 107 -11z m415 -44 c63 -10 139 -22 168 -25 56 -7 73 -24 52 -51
-9 -10 -22 -13 -40 -9 -22 5 -29 1 -38 -20 -7 -14 -12 -35 -12 -45 0 -16 -6
-19 -37 -17 l-38 2 0 -60 c0 -55 -2 -60 -23 -63 -34 -5 -59 23 -77 83 -8 29
-29 74 -47 101 -28 42 -38 49 -69 52 -24 2 -45 13 -64 32 -55 57 -21 60 225
20z m2106 -33 c1 -1 -1 -33 -5 -72 -6 -67 -7 -70 -33 -73 -16 -2 -28 -4 -29
-5 -1 -1 -3 -54 -5 -118 -4 -156 -48 -319 -84 -319 -13 0 -12 13 5 85 20 80
19 84 -11 95 -23 9 -25 14 -19 38 16 62 1 125 -29 121 -28 -3 -36 3 -36 27 0
39 -18 64 -45 64 -15 0 -25 6 -25 14 0 10 22 16 78 21 94 8 152 24 152 41 0
19 -29 44 -52 44 -20 0 -88 36 -88 47 0 5 222 -6 226 -10z m393 -9 c0 -7 -8
-31 -18 -53 l-18 -40 -6 45 c-3 24 -3 48 -1 52 8 13 44 9 43 -4z m-2067 -52
c75 -33 158 -101 158 -129 0 -12 8 -54 19 -92 10 -39 24 -106 31 -150 6 -44
16 -102 21 -130 4 -27 13 -88 19 -135 14 -111 40 -250 52 -272 24 -48 -67 12
-133 86 -32 37 -33 39 -40 174 -15 263 -28 376 -52 438 -21 53 -26 59 -54 62
-28 3 -32 8 -43 52 -8 32 -20 54 -36 65 -26 17 -33 55 -9 55 8 0 38 -11 67
-24z m1194 -87 c12 -19 -29 -80 -65 -95 l-33 -14 7 -69 7 -69 -29 -4 c-28 -3
-28 -4 -25 -65 3 -67 -5 -79 -44 -69 -19 5 -24 11 -19 25 3 10 -4 29 -16 45
-19 24 -26 27 -59 21 -33 -6 -38 -4 -44 17 -3 13 -6 34 -6 47 0 20 -4 23 -27
18 -21 -4 -33 2 -58 29 -20 20 -42 34 -56 34 -33 0 -69 -27 -69 -50 0 -11 -12
-25 -27 -32 -29 -14 -52 -80 -53 -148 0 -38 -23 -80 -44 -80 -10 0 -15 -36
-19 -140 l-7 -140 39 -82 c124 -270 153 -352 142 -398 -16 -67 -39 -110 -60
-110 -19 0 -23 8 -60 135 -5 17 -36 113 -69 215 -78 239 -105 369 -100 474 4
96 29 158 115 283 51 75 62 85 112 103 75 29 255 77 332 90 35 6 89 16 119 24
69 17 107 19 116 5z m1829 -460 c4 -44 5 -83 2 -85 -7 -8 -78 17 -98 33 -8 7
-19 13 -23 13 -4 0 -20 10 -36 22 -26 18 -33 20 -56 9 -15 -6 -35 -23 -46 -36
-11 -14 -28 -25 -38 -25 -9 0 -24 -9 -31 -21 -14 -20 -15 -20 -57 -4 -23 10
-47 26 -53 36 -7 15 -21 19 -58 19 -27 0 -68 9 -92 20 -27 12 -66 20 -101 20
-31 0 -60 5 -63 10 -3 6 -32 10 -63 11 l-57 0 40 16 c75 28 435 28 690 0 11
-1 20 4 20 13 0 15 35 27 86 29 26 1 27 0 34 -80z m-3950 -68 l60 -7 -70 -8
c-121 -14 -278 -45 -285 -56 -4 -6 -24 -13 -46 -17 -44 -7 -79 -22 -70 -30 3
-4 -1 -15 -10 -24 -16 -17 -15 -19 9 -28 15 -6 49 -13 77 -17 28 -4 53 -10 55
-15 9 -14 -37 -79 -66 -95 -35 -18 -49 -12 -49 21 0 15 -7 26 -20 30 -12 4
-20 15 -20 29 0 31 -37 76 -61 76 -11 0 -35 16 -53 35 -37 39 -59 44 -78 17
-7 -10 -21 -21 -30 -25 -11 -4 -18 -17 -18 -31 0 -25 -12 -38 -40 -42 -8 -1
-24 -5 -36 -9 -18 -6 -22 -2 -28 27 -4 21 -25 52 -58 85 -29 29 -48 54 -43 55
6 1 48 3 95 4 210 4 408 14 445 23 47 10 254 12 340 2z m3605 -75 c0 -7 -6
-29 -14 -47 -7 -19 -17 -55 -20 -81 -4 -27 -12 -48 -17 -48 -5 0 -17 16 -26
35 -11 23 -25 36 -44 40 -21 5 -29 14 -34 36 -8 37 -6 40 58 61 65 21 97 22
97 4z m-509 -131 c3 -22 13 -54 22 -72 23 -43 21 -53 -8 -53 -29 0 -32 -12 -8
-31 26 -23 121 -174 137 -221 17 -52 8 -68 -39 -68 -28 0 -33 4 -39 31 -3 17
-6 50 -6 74 0 45 -10 57 -71 88 -21 11 -43 33 -52 53 -10 19 -24 34 -34 34
-10 0 -24 4 -32 9 -11 7 -7 12 15 24 l29 15 -27 11 c-19 7 -26 15 -22 26 5 12
-5 15 -59 15 -44 0 -68 5 -76 14 -14 17 -127 28 -278 27 -57 -1 -103 1 -103 3
0 3 26 15 58 27 50 20 82 23 277 29 121 4 240 6 265 6 45 -1 45 -1 51 -41z
m-2797 2 c13 -10 16 -20 10 -41 -5 -23 -11 -27 -30 -23 -31 6 -46 -14 -53 -66
-5 -37 -9 -42 -34 -45 -35 -4 -49 -36 -51 -112 -1 -44 -5 -55 -18 -58 -16 -3
-18 7 -18 102 l0 105 -27 3 c-24 3 -29 9 -35 47 -4 24 -14 51 -23 61 -25 28
-18 32 48 26 48 -5 163 2 208 13 3 0 13 -5 23 -12z m421 -16 c55 -4 122 -17
150 -27 60 -23 72 -51 26 -60 -17 -4 -42 -17 -57 -30 -14 -14 -29 -22 -34 -19
-18 11 -48 -15 -55 -47 -13 -66 -14 -68 -43 -62 -22 4 -30 0 -45 -25 -22 -37
-32 -39 -48 -8 -7 12 -17 25 -24 29 -9 6 -11 27 -8 71 7 79 -7 112 -43 103
-20 -5 -26 -1 -39 30 -11 28 -19 34 -34 29 -21 -6 -36 9 -25 26 7 12 36 11
279 -10z m381 -112 c93 -49 107 -60 146 -117 51 -74 153 -376 169 -497 4 -38
20 -140 35 -225 37 -216 37 -222 21 -244 -14 -19 -15 -19 -53 4 -103 63 -136
105 -173 221 -24 77 -9 201 37 287 27 52 30 131 5 172 -13 22 -26 30 -52 32
-27 2 -35 7 -32 18 11 36 12 133 2 143 -6 6 -28 11 -48 12 -35 0 -38 2 -43 35
-8 50 -19 63 -46 57 -20 -3 -23 0 -26 27 -2 20 -11 34 -26 42 -19 10 -52 54
-52 70 0 16 70 -3 136 -37z m1535 -144 c4 -16 24 -62 46 -101 29 -52 37 -74
29 -86 -7 -12 -1 -28 27 -65 20 -27 53 -78 73 -114 36 -62 37 -67 38 -169 1
-124 -23 -226 -62 -265 -51 -51 -54 -30 -11 79 20 51 33 106 36 153 l6 74 -31
11 c-32 12 -42 32 -42 84 0 34 -13 49 -45 56 -17 3 -20 10 -17 55 4 59 -15 98
-53 107 -16 4 -25 16 -32 43 -7 30 -14 39 -35 43 -15 3 -36 17 -48 33 -26 33
-69 36 -96 6 -10 -12 -49 -41 -86 -64 -66 -43 -66 -44 -73 -97 -3 -29 -5 -64
-3 -78 3 -22 -1 -26 -37 -30 -48 -7 -98 13 -116 47 -38 72 -149 15 -149 -77 0
-26 -3 -30 -28 -30 -33 0 -60 -25 -71 -66 -5 -22 -15 -30 -40 -35 -54 -11 -66
-31 -64 -104 1 -55 -1 -65 -18 -70 -10 -4 -19 -11 -19 -16 0 -5 -12 -9 -26 -9
l-26 0 7 -82 c4 -46 12 -91 17 -101 16 -31 2 -49 -34 -45 -33 3 -33 4 -49 85
-24 117 -34 308 -19 362 6 23 28 66 48 94 68 97 144 188 160 194 10 3 65 28
123 54 58 27 116 49 128 49 24 0 271 49 282 56 4 2 54 9 111 15 72 7 105 15
111 25 6 10 21 14 45 12 31 -3 37 -7 43 -33z m-314 -1023 c-6 -55 -13 -74 -54
-134 -27 -39 -64 -83 -83 -99 -34 -29 -70 -38 -70 -19 0 21 83 176 119 222 20
25 44 60 53 78 27 49 42 29 35 -48z m-536 -289 c104 -112 129 -159 129 -244 0
-50 -34 -114 -60 -114 -20 0 -70 135 -80 215 -5 36 -15 85 -24 110 -28 81 -19
90 35 33z m499 -143 c52 -4 126 -15 163 -24 38 -9 86 -16 108 -16 22 0 72 -8
112 -17 99 -24 310 -25 352 -2 32 18 182 32 191 18 10 -16 -90 -70 -162 -89
-23 -5 -59 -27 -82 -47 -93 -86 -143 -122 -169 -123 -7 0 -40 -20 -74 -45 -34
-25 -67 -45 -73 -45 -7 0 -33 -20 -59 -44 -28 -28 -63 -50 -89 -57 -51 -14
-103 -60 -125 -109 -24 -52 -43 -70 -73 -70 -15 0 -36 -10 -47 -22 -41 -44
-93 -143 -93 -175 0 -30 -3 -33 -29 -33 -54 0 -101 -89 -101 -194 0 -65 60
-249 116 -354 30 -57 54 -109 54 -116 0 -26 -81 -186 -94 -186 -17 0 -23 25
-36 137 -5 48 -17 111 -26 138 -9 28 -20 64 -24 80 -4 17 -22 77 -38 135 -45
158 -70 349 -92 703 -12 196 -12 195 88 306 24 28 42 58 42 72 0 31 48 113 94
163 27 29 40 36 53 30 10 -4 61 -11 113 -14z m-1731 -739 c8 -5 -7 -11 -45
-15 -33 -4 -90 -16 -129 -26 -125 -33 -150 -34 -184 -9 -27 20 -34 21 -69 11
-22 -7 -48 -12 -60 -12 -11 0 -22 -7 -26 -15 -3 -8 -26 -27 -51 -43 -57 -35
-121 -111 -135 -160 -6 -20 -14 -70 -17 -109 -3 -40 -9 -73 -13 -73 -10 0 -28
40 -33 75 -8 45 12 216 29 249 8 16 14 37 14 47 0 32 28 49 83 49 29 1 86 9
127 20 61 15 114 19 285 19 116 0 216 -3 224 -8z m2111 -121 c0 -60 -22 -76
-54 -41 -20 22 -10 52 21 70 24 13 33 5 33 -29z m-1246 -180 c214 -84 286
-124 333 -184 23 -30 45 -67 48 -82 24 -116 45 -199 67 -277 35 -125 62 -318
83 -602 9 -121 20 -236 26 -255 12 -47 11 -100 -2 -100 -14 0 -96 47 -140 81
-19 15 -47 33 -62 40 -33 15 -67 70 -67 109 0 25 27 108 61 185 4 11 18 54 29
95 12 41 28 95 35 120 20 64 28 143 21 184 l-7 35 -66 -6 c-63 -6 -66 -5 -58
13 15 35 17 95 5 141 l-13 45 -39 -6 c-42 -7 -49 5 -23 40 15 20 19 61 9 88
-4 12 -20 16 -55 16 -48 0 -48 0 -59 39 -14 51 -35 69 -62 52 -22 -14 -21 -14
-37 17 -7 14 -21 22 -37 22 -13 0 -27 7 -30 15 -9 24 -38 18 -68 -14 -16 -17
-40 -31 -55 -33 -25 -3 -26 -6 -23 -52 l3 -48 -33 6 c-30 5 -36 3 -51 -23 -9
-16 -17 -42 -17 -59 0 -36 -44 -73 -54 -46 -3 9 -6 42 -6 74 0 32 -4 70 -10
85 -8 21 -14 24 -36 19 l-26 -7 7 55 c8 63 -4 81 -36 52 -17 -16 -22 -16 -29
-4 -6 8 -10 27 -10 41 0 32 -15 45 -57 47 -25 2 -36 -4 -48 -22 -9 -14 -28
-26 -43 -28 -23 -3 -27 -8 -30 -41 -3 -34 -6 -38 -29 -35 -22 3 -28 -4 -47
-52 -22 -53 -24 -55 -56 -52 -19 1 -36 4 -37 6 -2 2 5 28 17 57 26 70 26 89
-1 89 -23 0 -23 16 2 77 13 31 12 34 -21 68 -24 25 -31 38 -23 46 18 18 225
28 487 22 l249 -5 121 -48z m1231 -17 c-8 -80 -13 -89 -120 -213 -110 -127
-198 -216 -202 -203 -5 15 42 93 114 188 102 136 134 187 128 204 -3 11 8 31
29 54 50 55 59 49 51 -30z m324 -591 c55 -21 61 -36 23 -56 -17 -9 -35 -31
-46 -58 -40 -97 -47 -109 -62 -115 -28 -10 -37 12 -19 46 17 34 13 53 -10 44
-18 -6 -21 27 -4 44 7 7 9 19 6 27 -16 41 -81 1 -152 -93 -24 -31 -48 -51 -65
-54 -22 -5 -29 -14 -40 -52 -16 -59 -43 -92 -88 -111 -67 -28 -94 -70 -104
-164 -3 -21 -9 -26 -51 -32 -92 -13 -114 -44 -104 -149 5 -57 4 -59 -19 -59
-37 0 -76 43 -68 74 3 14 0 58 -7 98 -6 40 -12 134 -11 208 1 74 1 152 2 172
0 29 8 47 34 75 18 21 43 57 54 80 22 43 65 83 88 83 9 0 14 -11 14 -30 0 -36
20 -39 68 -10 39 24 70 25 100 4 29 -20 108 -10 139 19 21 19 24 19 87 3 88
-22 117 -21 123 4 7 25 50 26 112 2z m-2354 -102 c13 -26 35 -61 49 -78 43
-50 28 -59 -24 -16 -34 29 -94 139 -84 155 9 15 32 -9 59 -61z m-310 -56 l30
-13 -35 0 c-19 0 -51 9 -70 19 l-35 20 40 -6 c22 -4 54 -13 70 -20z m4055
-214 c0 -5 -17 -10 -37 -9 -34 1 -35 2 -13 9 36 11 50 11 50 0z m-865 -226
c-12 -69 -84 -173 -163 -238 -80 -66 -120 -91 -130 -82 -3 4 17 30 45 59 60
62 128 151 173 227 52 87 88 103 75 34z m-599 -138 c23 -72 16 -86 -40 -86
-25 0 -47 4 -51 10 -11 17 45 130 65 130 5 0 17 -24 26 -54z m1 -388 c-23 -52
-150 -191 -218 -236 -68 -46 -93 -48 -40 -5 37 31 185 200 221 253 13 19 29
38 35 42 16 12 17 -17 2 -54z m283 -11 c0 -13 -113 -80 -177 -106 -54 -22 -58
-7 -9 34 81 66 186 107 186 72z m-852 -144 c32 -32 72 -76 89 -97 53 -66 55
-169 7 -253 -40 -70 -51 -60 -88 91 -16 60 -41 148 -57 195 -17 47 -32 94 -36
104 -11 35 28 16 85 -40z m982 17 c23 -23 19 -40 -9 -40 -24 0 -43 23 -35 44
8 21 20 20 44 -4z"/>
</g>
</svg>
